<mxfile host="app.diagrams.net" modified="2024-05-12T14:24:56.308Z" agent="Mozilla/5.0 (Windows NT 10.0; Win64; x64) AppleWebKit/537.36 (KHTML, like Gecko) Chrome/124.0.0.0 Safari/537.36 Edg/124.0.0.0" version="24.4.0" etag="bYnPSn3LXCgEUrlF_uP0" type="github">
  <diagram name="Page-1" id="m5Op_1skpebrQqO2WMzF">
    <mxGraphModel>
      <root>
        <mxCell id="0" />
        <mxCell id="1" parent="0" />
      </root>
    </mxGraphModel>
  </diagram>
</mxfile>
